HIERARCHY
ROOT Hips
{
  OFFSET -22.5392 62.3281 57.914
  CHANNELS 6 Xposition Yposition Zposition Zrotation Xrotation Yrotation
  JOINT RightUpLeg
  {
    OFFSET -8.9458 -8.66707 0.101652
    CHANNELS 3 Zrotation Xrotation Yrotation
    JOINT RightLeg
    {
      OFFSET 0 -44.4227 1.3727
      CHANNELS 3 Zrotation Xrotation Yrotation
      JOINT RightFoot
      {
        OFFSET 0.253549 -42.0924 -1.46059
        CHANNELS 3 Zrotation Xrotation Yrotation
        JOINT RightToes
        {
          OFFSET 0.04 -4.41509 8.4991
          CHANNELS 3 Zrotation Xrotation Yrotation
          End Site
          {
            OFFSET -0.08 -0.137448 9.77979
          }
        }
      }
    }
  }
  JOINT Spine
  {
    OFFSET 0 11.8905 0
    CHANNELS 3 Zrotation Xrotation Yrotation
    JOINT Spine1
    {
      OFFSET 0 25.6574 0.127663
      CHANNELS 3 Zrotation Xrotation Yrotation
      JOINT HEad
      {
        OFFSET 0 8.73416 0.011341
        CHANNELS 3 Zrotation Xrotation Yrotation
        End Site
        {
          OFFSET -0.29 12.7742 2.51395
        }
      }
      JOINT LeftShoulder1
      {
        OFFSET 8.99 -0.362252 -0.22
        CHANNELS 3 Zrotation Xrotation Yrotation
        JOINT LeftArm
        {
          OFFSET 10.2827 -0.00338 0.322123
          CHANNELS 3 Zrotation Xrotation Yrotation
          JOINT LeftForeArm
          {
            OFFSET 32.7669 0.099144 -1.42434
            CHANNELS 3 Zrotation Xrotation Yrotation
            JOINT LeftHand
            {
              OFFSET 27.5643 0.085362 1.02216
              CHANNELS 3 Zrotation Xrotation Yrotation
              End Site
              {
                OFFSET 16.7443 -0.6 1.50291
              }
            }
          }
        }
      }
      JOINT RightShoulder
      {
        OFFSET -8.99 -0.362252 -0.22
        CHANNELS 3 Zrotation Xrotation Yrotation
        JOINT RightArm
        {
          OFFSET -10.2827 -0.00338 0.322123
          CHANNELS 3 Zrotation Xrotation Yrotation
          JOINT RightForeArm
          {
            OFFSET -32.8971 0.099144 -1.42434
            CHANNELS 3 Zrotation Xrotation Yrotation
            JOINT RightHand
            {
              OFFSET -27.4921 0.085362 1.02216
              CHANNELS 3 Zrotation Xrotation Yrotation
              End Site
              {
                OFFSET -16.6312 -0.6 1.50291
              }
            }
          }
        }
      }
    }
  }
  JOINT LeftUpLeg
  {
    OFFSET 8.9458 -8.66707 0.101652
    CHANNELS 3 Zrotation Xrotation Yrotation
    JOINT LeftLeg
    {
      OFFSET 0 -44.4227 1.3727
      CHANNELS 3 Zrotation Xrotation Yrotation
      JOINT LeftFoot
      {
        OFFSET -0.253549 -42.0924 -1.46059
        CHANNELS 3 Zrotation Xrotation Yrotation
        JOINT LeftToes
        {
          OFFSET -0.04 -4.41509 8.4991
          CHANNELS 3 Zrotation Xrotation Yrotation
          End Site
          {
            OFFSET 0.08 -0.047448 9.77979
          }
        }
      }
    }
  }
}
MOTION
Frames:	15
Frame Time:	0.0166667
0.326829 109.912 -0.265134 -0.438882 2.10103 164.804 -2.508 -4.00883 -19.3213 5.25344 18.4489 -26.2589 4.10861 -12.4268 -4.9047 0.0462048 0.000533403 0.662642 -0.400032 -2.91326 -2.06261 -0.90665 -5.80456 -4.15401 0.226174 11.9554 8.79811 -7.95139e-016 0 -3.18055e-015 -1.12834 -36.9885 -8.781 -4.25758 20.2368 -3.69376 1.32688 21.9406 5.66169 -1.95594e-008 -1.64207e-006 -1.94768e-006 -13.957 -34.2927 -14.3195 0.765513 25.1635 -1.70038 7.07032 22.2002 -12.3462 -7.10955 1.51586 -20.6366 9.42894 16.3352 -26.3788 -6.09725 -18.6062 -16.9092 -1.05895e-007 1.55988e-007 -4.8394e-009 
0.345555 109.916 -0.245226 -0.449604 2.09894 164.831 -2.50254 -4.00973 -19.332 5.24744 18.433 -26.2618 4.10063 -12.419 -4.88038 0.0462048 0.000533403 0.662642 -0.40202 -2.91577 -2.06375 -0.910786 -5.80951 -4.15643 0.204492 11.9468 8.81364 -0 -3.18055e-015 -0 -1.11065 -36.9651 -8.77711 -4.25742 20.2111 -3.67547 1.29828 21.9481 5.67292 -1.95594e-008 -1.64207e-006 -1.94768e-006 -13.9835 -34.2819 -14.3015 0.769743 25.1748 -1.706 7.10848 22.1977 -12.3446 -7.10293 1.5075 -20.6997 9.40998 16.3218 -26.3777 -6.10004 -18.5846 -16.9324 -1.05895e-007 1.55988e-007 -4.8394e-009 
0.36136 109.919 -0.229784 -0.458511 2.09708 164.862 -2.49525 -4.01113 -19.3496 5.2422 18.4212 -26.2576 4.08763 -12.413 -4.90789 0.0462048 0.000533403 0.662642 -0.403014 -2.91808 -2.06496 -0.912548 -5.81366 -4.16031 0.188312 11.9361 8.83579 1.59028e-015 0 -3.18055e-015 -1.0797 -36.9347 -8.77122 -4.25252 20.1892 -3.65933 1.31906 21.9376 5.6775 -1.95594e-008 -1.64207e-006 -1.94768e-006 -14.0192 -34.2723 -14.2868 0.769339 25.1866 -1.70003 7.1083 22.1926 -12.34 -7.09251 1.49745 -20.6794 9.39398 16.3132 -26.3687 -6.10992 -18.5608 -16.9764 -1.05895e-007 1.55988e-007 -4.8394e-009 
0.377139 109.924 -0.21049 -0.464563 2.10283 164.892 -2.49085 -4.01319 -19.3508 5.24334 18.4096 -26.2679 4.08046 -12.4082 -4.95988 0.0462048 0.000533403 0.662642 -0.403782 -2.92028 -2.06618 -0.913424 -5.81856 -4.16383 0.173915 11.9345 8.85194 -7.95139e-016 1.59028e-015 -3.18055e-015 -1.04041 -36.9126 -8.76602 -4.24475 20.1793 -3.65646 1.34942 21.9383 5.6676 -1.95594e-008 -1.64207e-006 -1.94768e-006 -14.0778 -34.2427 -14.2831 0.765238 25.1846 -1.68658 7.07082 22.1876 -12.3189 -7.08437 1.49609 -20.7 9.39131 16.3026 -26.376 -6.09819 -18.5488 -16.9462 -1.05895e-007 1.55988e-007 -4.8394e-009 
0.392497 109.928 -0.186326 -0.467026 2.11175 164.921 -2.48375 -4.0153 -19.3412 5.24728 18.3993 -26.2825 4.07274 -12.399 -4.94876 0.0462048 0.000533403 0.662642 -0.404348 -2.92235 -2.06744 -0.913268 -5.82264 -4.16482 0.165561 11.933 8.86251 -0 0 3.18055e-015 -0.993731 -36.8958 -8.76286 -4.23387 20.1699 -3.66018 1.38973 21.9449 5.64296 -1.95594e-008 -1.64207e-006 -1.94768e-006 -14.1477 -34.2079 -14.2756 0.759725 25.1957 -1.67336 7.02011 22.1842 -12.2917 -7.07988 1.49909 -20.6998 9.39313 16.2935 -26.3843 -6.10656 -18.5288 -16.9818 -1.05895e-007 1.55988e-007 -4.8394e-009 
0.409172 109.93 -0.163423 -0.468802 2.11717 164.952 -2.46873 -4.01707 -19.3449 5.24853 18.3872 -26.2901 4.06027 -12.3968 -5.00986 0.0462048 0.000533403 0.662642 -0.404733 -2.92413 -2.06876 -0.912616 -5.82634 -4.16628 0.163563 11.9317 8.87081 -7.95139e-016 0 3.18055e-015 -0.947952 -36.8727 -8.76245 -4.20901 20.1339 -3.66722 1.448 21.9474 5.63218 -1.95594e-008 -1.64207e-006 -1.94768e-006 -14.217 -34.1694 -14.2662 0.755312 25.2305 -1.67131 6.98212 22.1823 -12.2787 -7.07635 1.50247 -20.6998 9.39358 16.2862 -26.3911 -6.09991 -18.5224 -16.965 -1.05895e-007 1.55988e-007 -4.8394e-009 
0.425131 109.931 -0.137581 -0.470921 2.12208 164.985 -2.4632 -4.01867 -19.3637 5.24977 18.3744 -26.2877 4.05334 -12.3957 -5.0316 0.0462048 0.000533403 0.662642 -0.404983 -2.9262 -2.07016 -0.91158 -5.8291 -4.16784 0.170449 11.9331 8.86863 7.95139e-016 4.77083e-015 -0 -0.910333 -36.854 -8.77625 -4.17549 20.0983 -3.67322 1.48074 21.9343 5.6402 -1.95594e-008 -1.64207e-006 -1.94768e-006 -14.2868 -34.1302 -14.2561 0.751414 25.2485 -1.67349 6.96054 22.1814 -12.276 -7.07626 1.50251 -20.6999 9.38767 16.2791 -26.394 -6.09913 -18.5115 -16.9739 -1.05895e-007 1.55988e-007 -4.8394e-009 
0.442175 109.932 -0.103701 -0.475388 2.12566 165.016 -2.45778 -4.01976 -19.3911 5.24999 18.3635 -26.2816 4.04089 -12.3914 -4.94706 0.0462048 0.000533403 0.662642 -0.405122 -2.92838 -2.07179 -0.910471 -5.83229 -4.16964 0.180712 11.9398 8.86177 -1.59028e-015 0 -0 -0.866642 -36.8445 -8.7722 -4.14364 20.0863 -3.70356 1.48232 21.9368 5.65682 -1.95594e-008 -1.64207e-006 -1.94768e-006 -14.3569 -34.0936 -14.2457 0.743729 25.2286 -1.68487 6.94065 22.1829 -12.2754 -7.06083 1.49445 -20.7998 9.37216 16.2752 -26.3873 -6.09399 -18.5007 -16.9818 -1.05895e-007 1.55988e-007 -4.8394e-009 
0.457455 109.934 -0.0753737 -0.484976 2.12894 165.042 -2.45306 -4.02028 -19.4098 5.24831 18.354 -26.2787 4.02919 -12.3863 -4.91079 0.0462048 0.000533403 0.662642 -0.405158 -2.93075 -2.07329 -0.909628 -5.83774 -4.17184 0.195613 11.9674 8.85252 -7.95139e-016 1.59028e-015 3.18055e-015 -0.809918 -36.8102 -8.76264 -4.12092 20.0727 -3.73931 1.48742 21.9526 5.64171 -1.95594e-008 -1.64207e-006 -1.94768e-006 -14.4163 -34.0747 -14.2208 0.734723 25.2049 -1.69685 6.91035 22.1719 -12.2733 -7.06029 1.4742 -20.7833 9.35975 16.2714 -26.3897 -6.08812 -18.4835 -17.0058 -1.05895e-007 1.55988e-007 -4.8394e-009 
0.471313 109.936 -0.0460737 -0.493733 2.13276 165.066 -2.44863 -4.01961 -19.4254 5.24822 18.3433 -26.2836 4.0172 -12.384 -4.90615 0.0462048 0.000533403 0.662642 -0.405117 -2.9334 -2.07458 -0.909208 -5.84471 -4.17457 0.199598 12.0088 8.84622 -7.95139e-016 -3.18055e-015 -3.18055e-015 -0.745223 -36.7743 -8.75974 -4.11255 20.0619 -3.76361 1.50105 21.9725 5.61407 -1.95594e-008 -1.64207e-006 -1.94768e-006 -14.4877 -34.0771 -14.2154 0.734035 25.2016 -1.6857 6.89764 22.1671 -12.2682 -7.05171 1.46485 -20.8002 9.34887 16.2652 -26.3997 -6.08193 -18.4793 -16.9998 -1.05895e-007 1.55988e-007 -4.8394e-009 
0.484594 109.938 -0.0192618 -0.504678 2.14555 165.099 -2.45115 -4.01558 -19.4493 5.24834 18.3325 -26.2898 4.00836 -12.3819 -4.93006 0.0462048 0.000533403 0.662642 -0.405054 -2.93672 -2.07602 -0.909318 -5.85084 -4.17867 0.194372 12.0649 8.84337 7.95139e-016 0 3.18055e-015 -0.692306 -36.7331 -8.7586 -4.09086 20.0487 -3.77384 1.5284 21.9641 5.61393 -1.95594e-008 -1.64207e-006 -1.94768e-006 -14.5576 -34.0647 -14.2168 0.736146 25.2078 -1.65869 6.8898 22.1793 -12.2527 -7.06198 1.47481 -20.8001 9.34963 16.2568 -26.4109 -6.07874 -18.4779 -16.9905 -1.05895e-007 1.55988e-007 -4.8394e-009 
0.4951 109.94 0.0135374 -0.516985 2.16196 165.14 -2.45999 -4.004 -19.4788 5.24979 18.3201 -26.2995 3.9988 -12.3815 -4.8932 0.0462048 0.000533403 0.662642 -0.404941 -2.93884 -2.07791 -0.910211 -5.85694 -4.18412 0.188145 12.1142 8.84049 0 0 -0 -0.649391 -36.7041 -8.75494 -4.07342 20.037 -3.77624 1.56331 21.9563 5.63153 -1.95594e-008 -1.64207e-006 -1.94768e-006 -14.6147 -34.019 -14.1972 0.734512 25.2385 -1.63739 6.87931 22.1913 -12.242 -7.06634 1.4778 -20.8997 9.34166 16.2489 -26.4169 -6.07201 -18.478 -16.9661 -1.05895e-007 1.55988e-007 -4.8394e-009 
0.50329 109.942 0.0394427 -0.530969 2.18068 165.174 -2.47013 -3.99286 -19.5062 5.25113 18.3061 -26.3046 3.99033 -12.381 -4.90113 0.0462048 0.000533403 0.662642 -0.404842 -2.94041 -2.0806 -0.911785 -5.85996 -4.19022 0.18331 12.152 8.83437 2.38542e-015 -1.59028e-015 -0 -0.591281 -36.675 -8.7413 -4.07257 20.0005 -3.77642 1.59459 21.9642 5.62654 -1.95594e-008 -1.64207e-006 -1.94768e-006 -14.6342 -33.9564 -14.1578 0.723223 25.2782 -1.62399 6.81802 22.1979 -12.223 -7.07588 1.48839 -20.8996 9.33408 16.2436 -26.4142 -6.06786 -18.4784 -16.9482 -1.05895e-007 1.55988e-007 -4.8394e-009 
0.514825 109.944 0.0673162 -0.546999 2.18823 165.204 -2.47746 -3.99056 -19.532 5.25226 18.2883 -26.3149 3.98 -12.3808 -4.9154 0.0462048 0.000533403 0.662642 -0.404464 -2.94199 -2.08522 -0.91477 -5.86325 -4.19981 0.181405 12.1741 8.81989 7.95139e-016 -1.59028e-015 -3.18055e-015 -0.524963 -36.6547 -8.71651 -4.0718 19.9447 -3.77549 1.57476 21.9813 5.61275 -1.95594e-008 -1.64207e-006 -1.94768e-006 -14.6096 -33.9093 -14.1077 0.699793 25.3193 -1.61317 6.68576 22.1909 -12.1864 -7.08196 1.4844 -20.9995 9.32417 16.2368 -26.4116 -6.07145 -18.4794 -16.9501 -1.05895e-007 1.55988e-007 -4.8394e-009 
0.52888 109.946 0.0897052 -0.567748 2.19276 165.238 -2.48909 -3.99168 -19.5746 5.25309 18.2638 -26.3241 3.96836 -12.381 -4.936 0.0462048 0.000533403 0.662642 -0.404041 -2.94415 -2.09145 -0.921314 -5.86585 -4.21255 0.180395 12.1855 8.79677 1.59028e-015 -1.59028e-015 -3.18055e-015 -0.478529 -36.6446 -8.69437 -4.04959 19.8817 -3.77399 1.55654 21.9915 5.61549 -1.95594e-008 -1.64207e-006 -1.94768e-006 -14.5915 -33.8877 -14.0779 0.692446 25.3549 -1.58692 6.57241 22.184 -12.1487 -7.09863 1.47745 -20.9992 9.32333 16.2272 -26.4187 -6.04073 -18.4978 -16.837 -1.05895e-007 1.55988e-007 -4.8394e-009 
